# xmcd
#
# Track frame offsets:
#	150
#	10794
#	27153
#	38684
#	57738
#	68045
#	82041
#	95816
#	111658
#	123667
#	141116
#	151437
#	164099
#	176447
#	188863
#	212730
#	221904
#
# Disc length: 3207 seconds
#
# Revision: 0
# Processed by: cddbd v1.5.1PL0 Copyright (c) Steve Scherf et al.
# Submitted via: dBpowerAMP V4.0
#
DISCID=040c8511
DTITLE=Ray Charles - Melancolico Blues
DYEAR=2001
DGENRE=Blues
TTITLE0=Kiss me baby
TTITLE1=Georgia on my mind
TTITLE2=I'm going down to the river
TTITLE3=I can't stop loving you
TTITLE4=Sitting on the top of the world
TTITLE5=Alone in the city
TTITLE6=Ray Charles Blues
TTITLE7=Cry
TTITLE8=Can anyone ask for more for me
TTITLE9=Ruby
TTITLE10=Baby tell me what I've done
TTITLE11=Unchain my hear
TTITLE12=Yesterday
TTITLE13=They're crazy about
TTITLE14=People
TTITLE15=All to myself
TTITLE16=Baby it's cold outside
EXTD=Arion Records\nFabricado por Masterdisk
EXTT0=
EXTT1=
EXTT2=
EXTT3=
EXTT4=
EXTT5=
EXTT6=
EXTT7=
EXTT8=
EXTT9=
EXTT10=
EXTT11=
EXTT12=
EXTT13=
EXTT14=
EXTT15=
EXTT16=
PLAYORDER=
